<svg width="54" height="53" viewBox="0 0 54 53" fill="none" xmlns="http://www.w3.org/2000/svg">
<rect x="0.875" width="52.25" height="52.25" rx="12" fill="#363A45"/>
<path d="M10.875 13.5833C10.875 12.633 11.2525 11.7215 11.9245 11.0495C12.5965 10.3775 13.508 10 14.4583 10H39.5417C40.492 10 41.4035 10.3775 42.0755 11.0495C42.7475 11.7215 43.125 12.633 43.125 13.5833V38.6667C43.125 39.617 42.7475 40.5285 42.0755 41.2005C41.4035 41.8725 40.492 42.25 39.5417 42.25H14.4583C13.508 42.25 12.5965 41.8725 11.9245 41.2005C11.2525 40.5285 10.875 39.617 10.875 38.6667V13.5833Z" stroke="#718096" stroke-width="3" stroke-linecap="round" stroke-linejoin="round"/>
<path d="M24.8203 32.6562V37.0104" stroke="#718096" stroke-width="3" stroke-linecap="round" stroke-linejoin="round"/>
<path d="M31.3516 23.9531V37.0156" stroke="#718096" stroke-width="3" stroke-linecap="round" stroke-linejoin="round"/>
<path d="M37.8828 28.2969V37.0052" stroke="#718096" stroke-width="3" stroke-linecap="round" stroke-linejoin="round"/>
</svg>
