<svg width="24" height="24" viewBox="0 0 24 24" fill="none" xmlns="http://www.w3.org/2000/svg">
<path fill-rule="evenodd" clip-rule="evenodd" d="M12 2C6.47715 2 2 6.47715 2 12C2 17.5228 6.47715 22 12 22C17.5228 22 22 17.5228 22 12C22 6.47715 17.5228 2 12 2ZM11.7071 15.2071L16 10.9142C16.3905 10.5236 16.3905 9.89048 16 9.49995C15.6094 9.10943 14.9763 9.10943 14.5857 9.49995L11 13.0857L8.91417 11C8.52364 10.6094 7.89048 10.6094 7.49995 11C7.10943 11.3905 7.10943 12.0236 7.49995 12.4142L10.2928 15.2071C10.6834 15.5976 11.3165 15.5976 11.7071 15.2071Z" fill="#5EC654"/>
</svg>
