<svg width="50" height="50" viewBox="0 0 50 50" fill="none" xmlns="http://www.w3.org/2000/svg">
<rect width="50" height="50" rx="12" fill="#232160"/>
<path d="M22.5 16H27.5C27.8978 16 28.2794 16.158 28.5607 16.4393C28.842 16.7206 29 17.1022 29 17.5C29 18.4283 28.6313 19.3185 27.9749 19.9749C27.3185 20.6313 26.4283 21 25.5 21H24.5C23.5717 21 22.6815 20.6313 22.0251 19.9749C21.3687 19.3185 21 18.4283 21 17.5C21 17.1022 21.158 16.7206 21.4393 16.4393C21.7206 16.158 22.1022 16 22.5 16Z" stroke="#6660FF" stroke-width="2" stroke-linecap="round" stroke-linejoin="round"/>
<path d="M17 30V29C17 26.8783 17.8429 24.8434 19.3431 23.3431C20.8434 21.8429 22.8783 21 25 21C27.1217 21 29.1566 21.8429 30.6569 23.3431C32.1571 24.8434 33 26.8783 33 29V30C33 31.0609 32.5786 32.0783 31.8284 32.8284C31.0783 33.5786 30.0609 34 29 34H21C19.9391 34 18.9217 33.5786 18.1716 32.8284C17.4214 32.0783 17 31.0609 17 30Z" stroke="#6660FF" stroke-width="2" stroke-linecap="round" stroke-linejoin="round"/>
</svg>
