<svg width="22" height="20" viewBox="0 0 22 20" fill="none" xmlns="http://www.w3.org/2000/svg">
<path d="M9.0649 10.493L2.88491 11.811C2.64503 11.8631 2.39429 11.8186 2.18694 11.6872C1.97959 11.5558 1.83229 11.3481 1.77691 11.109L1.23991 8.95899C1.17677 8.69995 1.21262 8.42667 1.34044 8.19268C1.46825 7.95869 1.67883 7.78085 1.93091 7.69399L15.4349 3.25399M12.5599 9.74699L16.8919 8.82299M14.9999 19L11.8949 12.79M5.15791 6.63299L6.2719 11.089M6.99991 19L10.1049 12.79M15.4849 3.93999C15.3564 3.42548 15.4374 2.88097 15.7103 2.42622C15.9831 1.97146 16.4254 1.64369 16.9399 1.51499L18.0299 1.24299C18.287 1.17885 18.5591 1.21939 18.7863 1.3557C19.0136 1.49202 19.1774 1.71296 19.2419 1.96999L20.7569 8.02999C20.8213 8.28725 20.781 8.55957 20.6446 8.78705C20.5083 9.01453 20.2872 9.17854 20.0299 9.24299L18.9399 9.51499C18.4254 9.64354 17.8809 9.56248 17.4261 9.28962C16.9714 9.01677 16.6436 8.57447 16.5149 8.05999L15.4849 3.93999ZM12.9999 11C12.9999 12.1046 12.1045 13 10.9999 13C9.89534 13 8.99991 12.1046 8.99991 11C8.99991 9.89542 9.89534 8.99999 10.9999 8.99999C12.1045 8.99999 12.9999 9.89542 12.9999 11Z" stroke="#ECECED" stroke-width="2" stroke-linecap="round" stroke-linejoin="round"/>
</svg>
