<svg width="24" height="18" viewBox="0 0 24 18" fill="none" xmlns="http://www.w3.org/2000/svg">
<path fill-rule="evenodd" clip-rule="evenodd" d="M17.7275 17.4796C17.7275 17.4796 16.9871 16.6021 16.3702 15.8469C19.0642 15.0919 20.0925 13.4388 20.0925 13.4388C19.2493 13.9898 18.4472 14.3776 17.7275 14.6429C16.6991 15.0714 15.712 15.3367 14.7454 15.5204C12.7711 15.8878 10.9614 15.7857 9.41897 15.5C8.24672 15.2755 7.239 14.9694 6.39581 14.6224C5.9228 14.4388 5.40867 14.2143 4.89455 13.9286C4.83286 13.8878 4.77113 13.8673 4.70948 13.8265C4.66838 13.8062 4.6478 13.7857 4.62722 13.7857C4.257 13.5816 4.05136 13.4388 4.05136 13.4388C4.05136 13.4388 5.03855 15.051 7.65037 15.8265C7.03336 16.6021 6.27248 17.5 6.27248 17.5C1.72753 17.3571 0 14.4184 0 14.4184C0 7.90824 2.96142 2.62265 2.96142 2.62265C5.92284 0.439005 8.71978 0.500219 8.71978 0.500219L8.92547 0.745079C5.2237 1.78592 3.53723 3.39816 3.53723 3.39816C3.53723 3.39816 3.98972 3.15325 4.75064 2.82671C6.95119 1.86751 8.6992 1.62265 9.41902 1.54101C9.54244 1.52059 9.64528 1.50017 9.76861 1.50017C11.0231 1.3369 12.4422 1.29611 13.9229 1.45933C15.8766 1.68382 17.9743 2.25526 20.1131 3.39811C20.1131 3.39811 18.4884 1.86746 14.9923 0.826668L15.2802 0.500173C15.2802 0.500173 18.0976 0.438912 21.0385 2.6226C21.0385 2.6226 24 7.90824 24 14.4183C24 14.398 22.2725 17.3367 17.7275 17.4795L17.7275 17.4796ZM15.6709 8.03067C14.4987 8.03067 13.5732 9.03067 13.5732 10.2756C13.5732 11.5205 14.5193 12.5205 15.6709 12.5205C16.8431 12.5205 17.7686 11.5205 17.7686 10.2756C17.7686 9.03067 16.8226 8.03067 15.6709 8.03067ZM8.16455 8.03067C6.9923 8.03067 6.06684 9.03067 6.06684 10.2756C6.06684 11.5205 7.01288 12.5205 8.16455 12.5205C9.33675 12.5205 10.2622 11.5205 10.2622 10.2756C10.2828 9.03072 9.3368 8.03067 8.16455 8.03067Z" fill="#FEFEFC"/>
</svg>
