<svg width="22" height="16" viewBox="0 0 22 16" fill="none" xmlns="http://www.w3.org/2000/svg">
<path fill-rule="evenodd" clip-rule="evenodd" d="M18.8717 1.31995C19.7425 1.56058 20.43 2.24808 20.6592 3.11891C21.0832 4.70016 21.0832 8.00016 21.0832 8.00016C21.0832 8.00016 21.0832 11.3002 20.6707 12.8814C20.43 13.7637 19.754 14.4512 18.8832 14.6804C17.3019 15.1043 10.9998 15.1043 10.9998 15.1043C10.9998 15.1043 4.69775 15.1043 3.12796 14.6804C2.25713 14.4397 1.56963 13.7522 1.34046 12.8814C0.916504 11.3002 0.916504 8.00016 0.916504 8.00016C0.916504 8.00016 0.916504 4.70016 1.329 3.11891C1.56963 2.23662 2.24567 1.54912 3.1165 1.31995C4.69775 0.895996 10.9998 0.895996 10.9998 0.895996C10.9998 0.895996 17.3019 0.895996 18.8717 1.31995ZM14.2082 8.0002L8.93734 4.99811V11.0023L14.2082 8.0002Z" fill="#FEFEFC"/>
</svg>
