<svg width="40" height="40" viewBox="0 0 40 40" fill="none" xmlns="http://www.w3.org/2000/svg">
<mask id="mask0_5781_35953" style="mask-type:alpha" maskUnits="userSpaceOnUse" x="0" y="0" width="40" height="40">
<circle cx="20" cy="20" r="20" fill="#D9D9D9"/>
</mask>
<g mask="url(#mask0_5781_35953)">
<rect width="40" height="40" fill="#DD2033"/>
<path d="M21.9738 2.66943L20.4324 4.58309L18.095 4.26636L19.3251 6.34357L18.2584 8.57573L20.6078 7.76737L22.2383 9.64214L22.4307 7.17571L24.5345 5.99182L22.3519 5.0974L21.9738 2.66943Z" fill="#F1B434"/>
<path d="M11.1111 10.8892L9.28958 15.0094L5 15.5576L8.16389 18.6524L7.33417 23.1114L11.1111 20.5651L14.8881 23.1114L14.0583 18.6524L17.2222 15.5576L12.9326 15.0094L11.1111 10.8892Z" fill="#F1B434"/>
<path d="M24.3148 13.4307L24.6928 11.0027L26.2342 12.9164L28.5716 12.5997L27.3416 14.6769L28.4082 16.909L26.0588 16.1007L24.4283 17.9754L24.236 15.509L22.1321 14.3251L24.3148 13.4307Z" fill="#F1B434"/>
<path d="M24.4445 19.2225L23.4509 21.4699L21.1111 21.7689L22.8369 23.457L22.3843 25.8891L24.4444 24.5002L26.5046 25.8891L26.052 23.457L27.7778 21.7689L25.438 21.4699L24.4445 19.2225Z" fill="#F1B434"/>
<path d="M18.2102 27.9164L19.7516 26.0027L20.1296 28.4307L22.3123 29.3251L20.2084 30.509L20.0161 32.9754L18.3856 31.1007L16.0362 31.909L17.1028 29.6769L15.8728 27.5997L18.2102 27.9164Z" fill="#F1B434"/>
</g>
</svg>
