<svg width="40" height="40" viewBox="0 0 40 40" fill="none" xmlns="http://www.w3.org/2000/svg">
<mask id="mask0_5781_23106" style="mask-type:alpha" maskUnits="userSpaceOnUse" x="0" y="0" width="40" height="40">
<circle cx="20" cy="20" r="20" fill="#D9D9D9"/>
</mask>
<g mask="url(#mask0_5781_23106)">
</g>
<mask id="mask1_5781_23106" style="mask-type:alpha" maskUnits="userSpaceOnUse" x="0" y="0" width="40" height="40">
<circle cx="20" cy="20" r="20" fill="#D9D9D9"/>
</mask>
<g mask="url(#mask1_5781_23106)">
<rect y="35" width="35" height="40" transform="rotate(-90 0 35)" fill="#F5F7F8"/>
<rect x="20" y="10" width="5" height="20" transform="rotate(-90 20 10)" fill="#DD2033"/>
<rect x="20" y="20" width="5" height="20" transform="rotate(-90 20 20)" fill="#DD2033"/>
<rect y="30" width="5" height="40" transform="rotate(-90 0 30)" fill="#DD2033"/>
<rect y="40" width="5" height="40" transform="rotate(-90 0 40)" fill="#DD2033"/>
<rect y="20" width="20" height="20" transform="rotate(-90 0 20)" fill="#004692"/>
<path d="M15.7779 12.222L14.7843 14.4694L12.4446 14.7684L14.1703 16.4565L13.7177 18.8887L15.7779 17.4998L17.838 18.8887L17.3855 16.4565L19.1112 14.7684L16.7714 14.4694L15.7779 12.222Z" fill="#F5F7F8"/>
<path d="M15.7779 -1.11133L14.7843 1.13607L12.4446 1.4351L14.1703 3.12317L13.7177 5.55534L15.7779 4.16645L17.838 5.55534L17.3855 3.12317L19.1112 1.4351L16.7714 1.13607L15.7779 -1.11133Z" fill="#F5F7F8"/>
<path d="M11.3335 5.55534L10.3399 7.80274L8.00011 8.10176L9.72586 9.78983L9.27329 12.222L11.3334 10.8331L13.3936 12.222L12.941 9.78983L14.6668 8.10176L12.327 7.80274L11.3335 5.55534Z" fill="#F5F7F8"/>
<path d="M6.33346 12.222L5.33988 14.4694L3.00011 14.7684L4.72586 16.4565L4.27329 18.8887L6.33344 17.4998L8.39359 18.8887L7.94102 16.4565L9.66677 14.7684L7.32701 14.4694L6.33346 12.222Z" fill="#F5F7F8"/>
<path d="M6.33346 -1.11133L5.33988 1.13607L3.00011 1.4351L4.72586 3.12317L4.27329 5.55534L6.33344 4.16645L8.39359 5.55534L7.94102 3.12317L9.66677 1.4351L7.32701 1.13607L6.33346 -1.11133Z" fill="#F5F7F8"/>
<path d="M1.88901 5.55534L0.895433 7.80274L-1.44434 8.10176L0.28142 9.78983L-0.171152 12.222L1.889 10.8331L3.94915 12.222L3.49658 9.78983L5.22233 8.10176L2.88256 7.80274L1.88901 5.55534Z" fill="#F5F7F8"/>
</g>
</svg>
