<svg width="40" height="40" viewBox="0 0 40 40" fill="none" xmlns="http://www.w3.org/2000/svg">
<mask id="mask0_5781_34350" style="mask-type:alpha" maskUnits="userSpaceOnUse" x="0" y="0" width="40" height="40">
<circle cx="20" cy="20" r="20" transform="rotate(180 20 20)" fill="#D9D9D9"/>
</mask>
<g mask="url(#mask0_5781_34350)">
<rect width="40" height="40" fill="#A00009"/>
<rect x="40" y="10" width="20" height="40" transform="rotate(90 40 10)" fill="#F1B434"/>
<path fill-rule="evenodd" clip-rule="evenodd" d="M12.556 10.9258H13.6671V11.6665L14.7782 11.6665V12.7776H13.6671V13.8157C13.994 13.6266 14.3734 13.5184 14.7782 13.5184C16.0055 13.5184 17.0004 14.5133 17.0004 15.7406C17.0004 16.3988 16.7143 16.9901 16.2596 17.397V18.3332H9.96335V17.3969C9.50875 16.99 9.22266 16.3987 9.22266 15.7406C9.22266 14.5133 10.2176 13.5184 11.4449 13.5184C11.8496 13.5184 12.2291 13.6266 12.556 13.8157V12.7776H11.4449V11.6665L12.556 11.6665V10.9258ZM13.1115 14.2707L13.1013 14.2591H13.1218L13.1115 14.2707ZM13.1013 17.2221L13.1115 17.2105L13.1218 17.2221H13.1013Z" fill="#E26E00"/>
<path d="M8.11133 18.3335L18.1113 18.3335L18.1113 23.7901C18.1113 25.9865 16.7781 27.9631 14.7417 28.7859C13.6958 29.2084 12.5268 29.2084 11.481 28.7859C9.44452 27.9631 8.11133 25.9865 8.11133 23.7901L8.11133 18.3335Z" fill="#F5F7F8"/>
<mask id="mask1_5781_34350" style="mask-type:alpha" maskUnits="userSpaceOnUse" x="8" y="18" width="11" height="12">
<path d="M8.11133 18.333H18.1113V23.7896C18.1113 25.986 16.7781 27.9626 14.7417 28.7854C13.6958 29.208 12.5268 29.208 11.481 28.7854C9.44452 27.9626 8.11133 25.986 8.11133 23.7896V18.333Z" fill="#F5F7F8"/>
</mask>
<g mask="url(#mask1_5781_34350)">
<rect x="8.11133" y="18.333" width="5" height="5.55556" fill="#DD2033"/>
<rect x="8.11133" y="23.8887" width="5" height="5.55555" fill="#E26E00"/>
<rect x="13.1113" y="23.8887" width="5" height="5.55556" fill="#DD2033"/>
</g>
<path d="M19.2228 18.3335H20.8895V28.8891H19.2228V18.3335Z" fill="#F5F7F8"/>
<path d="M5.33398 18.3335H7.00065V28.8891H5.33398V18.3335Z" fill="#F5F7F8"/>
</g>
</svg>
