<svg width="40" height="40" viewBox="0 0 40 40" fill="none" xmlns="http://www.w3.org/2000/svg">
<mask id="mask0_5781_36536" style="mask-type:alpha" maskUnits="userSpaceOnUse" x="0" y="0" width="40" height="40">
<circle cx="20" cy="20" r="20" fill="#D9D9D9"/>
</mask>
<g mask="url(#mask0_5781_36536)">
<rect width="15.5556" height="40" fill="#005B33"/>
<rect x="15.5557" width="24.4444" height="40" fill="#DD2033"/>
<ellipse cx="15.2221" cy="19.9999" rx="7.77778" ry="7.77778" fill="#F1B434"/>
<path fill-rule="evenodd" clip-rule="evenodd" d="M10.2227 15.5557V21.0123C10.2227 23.2087 11.5559 25.1852 13.5923 26.0081C14.6381 26.4306 15.8072 26.4306 16.853 26.0081C18.8895 25.1852 20.2227 23.2087 20.2227 21.0123V15.5557H10.2227Z" fill="#F5F7F8"/>
<path fill-rule="evenodd" clip-rule="evenodd" d="M18.0004 17.7779H12.4449V21.0123C12.4449 22.3028 13.2282 23.4642 14.4248 23.9477C14.9366 24.1544 15.5087 24.1544 16.0205 23.9477C17.2171 23.4642 18.0004 22.3028 18.0004 21.0123V17.7779ZM10.2227 15.5557V21.0123C10.2227 23.2087 11.5559 25.1852 13.5923 26.0081C14.6381 26.4306 15.8072 26.4306 16.853 26.0081C18.8895 25.1852 20.2227 23.2087 20.2227 21.0123V15.5557H10.2227Z" fill="#DD2033"/>
</g>
</svg>
