<svg width="22" height="21" viewBox="0 0 22 21" fill="none" xmlns="http://www.w3.org/2000/svg">
<path d="M11 16V20M14.2 3.90005L13.3 3.50005M14.2 6.10005L13.3 6.50005M15.9 2.20005L15.5 1.30005M15.9 7.80005L15.5 8.70005M18.5 1.30005L18.1 2.20005M18.5 8.70005L18.1 7.80005M20.7 3.50005L19.8 3.90005M20.7 6.50005L19.8 6.10005M21 12V14C21 14.5305 20.7893 15.0392 20.4142 15.4143C20.0391 15.7893 19.5304 16 19 16H3C2.46957 16 1.96086 15.7893 1.58579 15.4143C1.21071 15.0392 1 14.5305 1 14V4.00005C1 3.46962 1.21071 2.96091 1.58579 2.58584C1.96086 2.21076 2.46957 2.00005 3 2.00005H10M7 20H15M20 5.00005C20 6.6569 18.6569 8.00005 17 8.00005C15.3431 8.00005 14 6.6569 14 5.00005C14 3.34319 15.3431 2.00005 17 2.00005C18.6569 2.00005 20 3.34319 20 5.00005Z" stroke="#6660FF" stroke-width="2" stroke-linecap="round" stroke-linejoin="round"/>
</svg>
