<svg width="32" height="32" viewBox="0 0 32 32" fill="none" xmlns="http://www.w3.org/2000/svg">
<path d="M20.5 5.5L26.5 11.5M29.761 8.218C30.5541 7.42513 30.9997 6.3497 30.9998 5.22828C31 4.10686 30.5546 3.03131 29.7618 2.23825C28.9689 1.44519 27.8935 0.999568 26.7721 0.999428C25.6506 0.999287 24.5751 1.44463 23.782 2.2375L3.76302 22.261C3.41475 22.6082 3.15719 23.0358 3.01302 23.506L1.03152 30.034C0.992757 30.1637 0.989829 30.3015 1.02305 30.4328C1.05627 30.564 1.1244 30.6838 1.22022 30.7795C1.31603 30.8752 1.43595 30.9431 1.56726 30.9761C1.69857 31.0091 1.83636 31.006 1.96602 30.967L8.49552 28.987C8.96528 28.8441 9.39278 28.5881 9.74052 28.2415L29.761 8.218Z" stroke="#FEFEFC" stroke-linecap="round" stroke-linejoin="round"/>
</svg>
