<svg width="86" height="86" viewBox="0 0 86 86" fill="none" xmlns="http://www.w3.org/2000/svg">
<rect width="86" height="86" rx="16" fill="white"/>
<path d="M55.1672 63.2985C50.9528 65.9768 46.2489 66.9226 40.8977 66.9226C25.8883 66.9226 15.7065 56.375 15.7065 41.3657C15.7065 26.3563 26.3563 16.1 41.3657 16.1C56.375 16.1 67.3386 26.3537 67.3386 41.363C67.3386 46.9522 65.6043 51.2972 62.704 55.6253C62.9049 55.8077 64.3939 56.8483 64.5948 57.0307C64.9253 57.3321 65.2585 57.6361 65.5942 57.9375C68.833 53.2182 70.734 47.5101 70.734 41.363C70.7313 25.1745 57.5568 12 41.3657 12C25.1745 12 12 25.1745 12 41.3657C12 57.5568 25.1745 70.7313 41.3657 70.7313C47.2642 70.7313 52.7582 68.9784 57.3638 65.9723C57.3056 65.9089 57.2501 65.8454 57.192 65.7793C56.7716 65.3061 56.3459 64.8249 55.9229 64.349L55.1672 63.2985Z" fill="#6660FF"/>
<path d="M73.1749 66.7773C71.6097 64.879 69.6718 63.2794 67.8607 61.5926C65.3516 59.2581 62.8029 56.9632 60.3045 54.6842C67.4694 42.6175 63.1123 30.0035 54.5884 24.06C45.6044 17.7967 33.5457 18.8463 25.8863 26.5849C18.3301 34.2178 17.3915 46.4062 23.6285 55.1759C29.4662 63.3852 42.1595 68.1839 54.4139 60.6356C57.5865 64.1995 60.6561 67.6842 63.7759 71.1265C64.5823 72.0175 65.4706 72.8662 66.4409 73.5695C68.8204 75.2959 70.9276 75.1584 72.8048 73.2839C74.7745 71.3169 75.0573 69.0616 73.1775 66.78L73.1749 66.7773ZM41.8422 60.625C31.5998 60.6356 23.3191 52.4236 23.2927 42.2288C23.2689 32.0789 31.6421 23.719 41.784 23.7639C51.9022 23.8089 60.1062 32.0604 60.0903 42.1733C60.0744 52.3549 51.9048 60.6144 41.8422 60.625Z" fill="#150EC2"/>
<path d="M48.9272 31.0645C47.3171 31.0645 46.0137 32.3705 46.0137 33.978V48.7521C46.0137 50.3622 47.3198 51.6656 48.9272 51.6656C50.5347 51.6656 51.8408 50.3595 51.8408 48.7521V33.978C51.8408 32.3679 50.5347 31.0645 48.9272 31.0645Z" fill="#150EC2"/>
<path d="M41.3667 35.7305C39.7566 35.7305 38.4531 37.0365 38.4531 38.644V48.7516C38.4531 50.3617 39.7592 51.6652 41.3667 51.6652C42.9742 51.6652 44.2803 50.3591 44.2803 48.7516V38.644C44.2803 37.0339 42.9742 35.7305 41.3667 35.7305Z" fill="#150EC2"/>
<path d="M33.8081 40.5352C32.198 40.5352 30.8945 41.8412 30.8945 43.4487V48.7524C30.8945 50.3625 32.2006 51.6659 33.8081 51.6659C35.4156 51.6659 36.7217 50.3598 36.7217 48.7524V43.4487C36.7217 41.8386 35.4156 40.5352 33.8081 40.5352Z" fill="#150EC2"/>
</svg>
