<svg width="22" height="22" viewBox="0 0 22 22" fill="none" xmlns="http://www.w3.org/2000/svg">
<path d="M6 17V11C6 9.67392 6.52678 8.40215 7.46447 7.46447C8.40215 6.52678 9.67392 6 11 6C12.3261 6 13.5979 6.52678 14.5355 7.46447C15.4732 8.40215 16 9.67392 16 11V17M6 17H16M6 17C5.46957 17 4.96086 17.2107 4.58579 17.5858C4.21071 17.9609 4 18.4696 4 19V20C4 20.2652 4.10536 20.5196 4.29289 20.7071C4.48043 20.8946 4.73478 21 5 21H17C17.2652 21 17.5196 20.8946 17.7071 20.7071C17.8946 20.5196 18 20.2652 18 20V19C18 18.4696 17.7893 17.9609 17.4142 17.5858C17.0391 17.2107 16.5304 17 16 17M20 11H21M17.5 3.5L17 4M1 11H2M11 1V2M3.929 3.929L4.636 4.636M11 11V17" stroke="#718096" stroke-width="2" stroke-linecap="round" stroke-linejoin="round"/>
</svg>
