<svg width="22" height="22" viewBox="0 0 22 22" fill="none" xmlns="http://www.w3.org/2000/svg">
<path d="M11 16C11 17.3261 10.4732 18.5979 9.53553 19.5355C8.59785 20.4732 7.32608 21 6 21C4.67392 21 3.40215 20.4732 2.46447 19.5355C1.52678 18.5979 1 17.3261 1 16C1 13.24 3.5 11 6 13M11 16C11 13.24 8.5 11 6 13M11 16C11 17.3261 11.5268 18.5979 12.4645 19.5355C13.4021 20.4732 14.6739 21 16 21C17.3261 21 18.5979 20.4732 19.5355 19.5355C20.4732 18.5979 21 17.3261 21 16C21 13.24 18.5 11 16 13M11 16C11 13.24 13.5 11 16 13M6 13C9.22 10.09 10.29 4.25 11 1M16 13C15.94 10 12.66 3.38 11 1M11 1C13.86 5.67 16.71 8 21 8C21 5.67 16.71 1 11 1Z" stroke="#718096" stroke-width="2" stroke-linecap="round" stroke-linejoin="round"/>
</svg>
