<svg width="22" height="23" viewBox="0 0 22 23" fill="none" xmlns="http://www.w3.org/2000/svg">
<path d="M16.5 5.75H16.51M6 1.25H16C18.7614 1.25 21 3.48858 21 6.25V16.25C21 19.0114 18.7614 21.25 16 21.25H6C3.23858 21.25 1 19.0114 1 16.25V6.25C1 3.48858 3.23858 1.25 6 1.25ZM15 10.62C15.1234 11.4522 14.9813 12.3022 14.5938 13.049C14.2063 13.7958 13.5931 14.4014 12.8416 14.7797C12.0901 15.1579 11.2384 15.2896 10.4078 15.1559C9.57713 15.0223 8.80976 14.6301 8.21484 14.0352C7.61992 13.4402 7.22773 12.6729 7.09407 11.8422C6.9604 11.0116 7.09207 10.1599 7.47033 9.40837C7.84859 8.65685 8.45419 8.04374 9.20098 7.65624C9.94778 7.26874 10.7978 7.12659 11.63 7.25C12.4789 7.37588 13.2649 7.77146 13.8717 8.37831C14.4785 8.98515 14.8741 9.77108 15 10.62Z" stroke="#718096" stroke-width="2" stroke-linecap="round" stroke-linejoin="round"/>
</svg>
