<svg width="29" height="28" viewBox="0 0 29 28" fill="none" xmlns="http://www.w3.org/2000/svg">
<g clip-path="url(#clip0_6631_44804)">
<path d="M14.9641 28C22.6961 28 28.9641 21.732 28.9641 14C28.9641 6.26801 22.6961 0 14.9641 0C7.23213 0 0.964111 6.26801 0.964111 14C0.964111 21.732 7.23213 28 14.9641 28Z" fill="url(#paint0_linear_6631_44804)"/>
<path fill-rule="evenodd" clip-rule="evenodd" d="M7.3013 13.8539C11.3826 12.0757 14.1041 10.9035 15.4658 10.3371C19.3537 8.71997 20.1616 8.43906 20.6882 8.42979C20.804 8.42775 21.0629 8.45645 21.2307 8.59255C21.3723 8.70748 21.4113 8.86273 21.4299 8.97169C21.4486 9.08065 21.4718 9.32887 21.4533 9.52282C21.2427 11.7366 20.331 17.1087 19.8672 19.5881C19.671 20.6372 19.2845 20.989 18.9104 21.0234C18.0974 21.0982 17.4801 20.4861 16.6926 19.97C15.4605 19.1623 14.7644 18.6595 13.5683 17.8713C12.1861 16.9604 13.0821 16.4598 13.8698 15.6416C14.076 15.4275 17.6581 12.1693 17.7275 11.8737C17.7361 11.8367 17.7442 11.6989 17.6623 11.6262C17.5805 11.5534 17.4596 11.5783 17.3725 11.5981C17.2489 11.6261 15.2804 12.9272 11.4672 15.5013C10.9084 15.8849 10.4024 16.0719 9.94893 16.0621C9.44905 16.0513 8.4875 15.7794 7.77268 15.5471C6.89593 15.2621 6.19911 15.1114 6.25979 14.6274C6.29139 14.3753 6.63856 14.1174 7.3013 13.8539Z" fill="white"/>
</g>
<defs>
<linearGradient id="paint0_linear_6631_44804" x1="14.9641" y1="0" x2="14.9641" y2="27.7923" gradientUnits="userSpaceOnUse">
<stop stop-color="#2AABEE"/>
<stop offset="1" stop-color="#229ED9"/>
</linearGradient>
<clipPath id="clip0_6631_44804">
<rect width="28" height="28" fill="white" transform="translate(0.964111)"/>
</clipPath>
</defs>
</svg>
