<svg width="33" height="25" viewBox="0 0 33 25" fill="none" xmlns="http://www.w3.org/2000/svg">
<path d="M27.5535 2.54142C25.5139 1.60557 23.3268 0.916086 21.04 0.521188C20.9983 0.513566 20.9567 0.532613 20.9353 0.570706C20.654 1.07099 20.3424 1.72366 20.1242 2.23665C17.6647 1.86842 15.2177 1.86842 12.8085 2.23665C12.5903 1.71226 12.2674 1.07099 11.9849 0.570706C11.9634 0.533884 11.9218 0.514837 11.8802 0.521188C9.59466 0.914824 7.40753 1.60431 5.36669 2.54142C5.34902 2.54903 5.33388 2.56174 5.32383 2.57824C1.1753 8.77605 0.0388443 14.8215 0.596351 20.7921C0.598874 20.8213 0.615271 20.8492 0.637975 20.867C3.37506 22.877 6.02639 24.0973 8.62848 24.9061C8.67013 24.9188 8.71425 24.9036 8.74075 24.8693C9.35628 24.0287 9.90497 23.1424 10.3754 22.2104C10.4032 22.1558 10.3767 22.091 10.3199 22.0694C9.44962 21.7393 8.62091 21.3368 7.82375 20.8797C7.7607 20.8428 7.75565 20.7527 7.81366 20.7095C7.98141 20.5838 8.1492 20.453 8.30938 20.3209C8.33837 20.2968 8.37875 20.2917 8.41282 20.307C13.6498 22.698 19.3195 22.698 24.4947 20.307C24.5288 20.2905 24.5692 20.2956 24.5994 20.3197C24.7596 20.4517 24.9274 20.5838 25.0964 20.7095C25.1544 20.7527 25.1506 20.8428 25.0876 20.8797C24.2904 21.3457 23.4617 21.7393 22.5901 22.0682C22.5334 22.0898 22.5081 22.1558 22.5359 22.2104C23.0165 23.1411 23.5651 24.0274 24.1693 24.868C24.1945 24.9036 24.2399 24.9188 24.2816 24.9061C26.8963 24.0973 29.5476 22.877 32.2847 20.867C32.3087 20.8492 32.3238 20.8225 32.3263 20.7933C32.9936 13.8907 31.2088 7.89484 27.5951 2.5795C27.5862 2.56174 27.5711 2.54903 27.5535 2.54142ZM11.1575 17.1566C9.58078 17.1566 8.28162 15.7091 8.28162 13.9314C8.28162 12.1537 9.55558 10.7061 11.1575 10.7061C12.7719 10.7061 14.0585 12.1664 14.0333 13.9314C14.0333 15.7091 12.7593 17.1566 11.1575 17.1566ZM21.7904 17.1566C20.2138 17.1566 18.9146 15.7091 18.9146 13.9314C18.9146 12.1537 20.1885 10.7061 21.7904 10.7061C23.405 10.7061 24.6915 12.1664 24.6663 13.9314C24.6663 15.7091 23.405 17.1566 21.7904 17.1566Z" fill="#5865F2"/>
</svg>
