<svg width="20" height="16" viewBox="0 0 20 16" fill="none" xmlns="http://www.w3.org/2000/svg">
<path d="M2.04984 7.34431L13.0614 2.80736C14.1484 2.33476 17.8346 0.822444 17.8346 0.822444C17.8346 0.822444 19.536 0.160805 19.3942 1.76764C19.347 2.42928 18.9689 4.74502 18.5908 7.24979L17.4093 14.6696C17.4093 14.6696 17.3148 15.7566 16.5114 15.9456C15.7079 16.1347 14.3847 15.284 14.1484 15.0949C13.9593 14.9532 10.6039 12.8265 9.37512 11.7867C9.0443 11.5032 8.66623 10.9361 9.42238 10.2744C11.1237 8.71485 13.1559 6.77719 14.3847 5.54844C14.9518 4.98132 15.5189 3.65804 13.1559 5.26488L6.49227 9.75457C6.49227 9.75457 5.73611 10.2272 4.31832 9.80183C2.90052 9.37649 1.24642 8.80937 1.24642 8.80937C1.24642 8.80937 0.112185 8.10047 2.04984 7.34431Z" fill="#718096"/>
</svg>
